<svg width="38" height="40" viewBox="0 0 38 40" fill="none" xmlns="http://www.w3.org/2000/svg">
<path d="M28.1709 0.497923C27.7428 0.331958 27.3146 0.16599 26.8865 2.50087e-05C26.038 0.0297064 25.1654 -0.0552222 24.3458 0.114099C22.3333 0.531116 21.8832 1.55734 22.9239 3.3167C23.6358 4.51867 24.5191 5.62294 25.2333 6.82396C25.841 7.84814 26.316 8.94935 26.8495 10.0161C26.7611 10.0675 26.6726 10.1188 26.5836 10.1717C26.3624 9.93254 26.128 9.70428 25.9244 9.45231C21.7868 4.31394 15.6132 2.82701 9.75478 5.80842C4.50964 8.47808 1.34075 12.8322 0.243958 18.6069C-0.755456 23.8698 1.3453 28.5808 6.00411 31.2718C7.63294 32.2118 8.98767 33.3704 10.1946 34.766C12.7987 37.7738 16.1172 39.3154 20.0777 39.0523C27.0352 38.5915 32.3523 35.2896 36.1392 29.5319C36.3333 29.2361 36.59 28.9787 36.8162 28.7024C37.0422 28.1193 37.2677 27.5376 37.4938 26.9544C37.4951 26.6534 37.4463 26.3419 37.5039 26.0537C38.0132 23.5161 37.5708 21.1394 36.2452 18.9146C34.7262 16.3649 32.512 14.5431 29.9802 13.0567C29.4071 12.7204 28.8367 12.3815 28.1736 11.9888C28.6196 11.7318 28.9084 11.5547 29.2064 11.3954C30.9052 10.4893 31.6433 9.01806 31.4883 7.17028C31.4006 6.11219 31.0862 5.05722 30.7679 4.03104C30.3174 2.57357 29.2218 1.54224 28.1709 0.497923ZM29.2972 24.8973C27.3986 24.1506 26.3571 22.5658 26.4883 20.9663C26.6114 19.4761 28.0374 18.3429 29.4273 18.7407C31.1375 19.2289 32.3979 20.333 33.1617 21.9316C33.5779 22.803 33.3902 23.5152 32.6741 24.1618C31.5939 25.1383 30.3466 25.2614 29.2972 24.8973Z" fill="#FDCC39"/>
</svg>
