<svg width="315" height="85" viewBox="0 0 315 85" fill="none" xmlns="http://www.w3.org/2000/svg">
<path d="M17.5378 39.4243H19.8431C21.7075 39.4243 23.3709 38.2603 24.024 36.5003L29.3157 22.1781V14.3056C29.3269 11.5727 27.1332 9.34596 24.4203 9.34033H5.4082V9.49778C7.574 10.0657 9.08671 12.0338 9.08671 14.2887V67.4503C9.08671 69.7052 7.574 71.6733 5.4082 72.2412V72.4268H24.4203C27.1332 72.4268 29.3324 70.2113 29.3324 67.4784V59.6059L24.0184 45.25C23.3765 43.4843 21.7075 42.3147 19.8431 42.3203H17.5378C16.7507 42.3203 16.1144 41.6736 16.1088 40.8751C16.1088 40.0823 16.7507 39.4356 17.5378 39.4356V39.4243Z" fill="white"/>
<path d="M24.4147 72.5899H5.40262C5.29656 72.5899 5.21283 72.5055 5.21283 72.3987V72.2356C5.21283 72.1457 5.27423 72.0726 5.35796 72.0501C7.43445 71.5046 8.88575 69.6152 8.88575 67.4503V14.2888C8.88575 12.1238 7.44003 10.2288 5.35796 9.68338C5.27423 9.66089 5.21283 9.58216 5.21283 9.49781V9.34037C5.21283 9.23353 5.29656 9.14918 5.40262 9.14355H24.4147C27.2336 9.14355 29.5222 11.4491 29.5222 14.2888V22.1612C29.5222 22.1612 29.5222 22.2062 29.5222 22.2287L24.2138 36.5509C23.5328 38.3953 21.7856 39.6156 19.8375 39.6156H17.5322C16.8512 39.6156 16.293 40.1723 16.293 40.8639C16.293 41.1957 16.4214 41.5106 16.6558 41.7468C16.8847 41.9829 17.2029 42.1179 17.5322 42.1123H19.8375C21.7801 42.1123 23.516 43.3381 24.1915 45.1769L29.5111 59.5329C29.5111 59.5329 29.5111 59.5779 29.5111 59.6003V67.4559C29.4999 70.2844 27.228 72.5786 24.4147 72.5899ZM5.40262 72.2356L6.11152 72.2019H24.4147C27.0215 72.2019 29.1315 70.0707 29.1371 67.4447V59.6453L23.8342 45.295C23.2146 43.6137 21.6238 42.4946 19.8431 42.4946H17.5378C16.6447 42.4946 15.919 41.7636 15.9134 40.8583C15.9134 39.953 16.6335 39.2163 17.5322 39.2107H19.8375C21.6182 39.2107 23.209 38.0917 23.8342 36.416L29.1315 22.1219V14.2831C29.1315 11.6571 27.0159 9.53155 24.4092 9.52593H6.10594C8.02055 10.3188 9.27091 12.1969 9.27091 14.2831V67.4447C9.27091 69.5309 8.02055 71.409 6.10594 72.2019L5.40262 72.2356Z" fill="#3C3C3B"/>
<path d="M37.7165 9.33472C35.5228 9.33472 33.5636 10.7068 32.7988 12.7761L29.3324 22.1387L24.0408 36.4778C23.3932 38.2491 21.7187 39.4244 19.8431 39.4187H41.5625C43.5441 39.4187 45.3136 38.1816 46.0057 36.3091L54.9145 12.2532C55.3611 10.9992 56.3435 10.0208 57.5883 9.58215V9.3291H37.7221L37.7165 9.33472Z" fill="url(#paint0_linear_8_1691)"/>
<path d="M41.5569 39.6154H19.8375C19.7315 39.6154 19.6478 39.531 19.6478 39.4242C19.6422 39.3173 19.7203 39.2217 19.8264 39.2161C19.8264 39.2161 19.832 39.2161 19.8375 39.2161C21.6182 39.2161 23.209 38.0971 23.8342 36.4214L32.6035 12.6972C33.3961 10.5548 35.4279 9.13209 37.6998 9.12646H57.5604C57.6664 9.12646 57.7557 9.21644 57.7557 9.32328V9.57632C57.7557 9.66067 57.7055 9.73377 57.6274 9.76188C56.4328 10.1836 55.4951 11.1171 55.0652 12.3148L46.1564 36.3708C45.4364 38.3052 43.6055 39.5985 41.5569 39.6154ZM21.7019 39.2274H41.5625C43.4604 39.2274 45.1517 38.0352 45.8215 36.2471L54.7303 12.1911C55.1601 10.9934 56.0588 10.0262 57.2199 9.52009H37.7221C35.6177 9.52009 33.731 10.8359 32.983 12.8209L24.2194 36.5282C23.7784 37.7316 22.863 38.6988 21.6963 39.2105V39.2217L21.7019 39.2274Z" fill="#3C3C3B"/>
<path d="M54.9089 69.4688L46.123 45.7446C45.3526 43.6809 43.3934 42.3145 41.2053 42.3032H19.8431C21.7019 42.3032 23.3653 43.4728 24.0073 45.2329L29.3213 59.5889L32.9105 69.2832C33.6026 71.1501 35.3721 72.3872 37.3537 72.3929H57.5771V72.1342C56.3435 71.6843 55.3667 70.7115 54.9145 69.4688H54.9089Z" fill="url(#paint1_linear_8_1691)"/>
<path d="M57.5883 72.5895H37.3649C35.3107 72.5895 33.4687 71.2961 32.7486 69.3561L23.8398 45.3002C23.2202 43.6188 21.6294 42.4998 19.8487 42.4998C19.7427 42.4829 19.6701 42.3817 19.6868 42.2749C19.698 42.1905 19.765 42.1231 19.8487 42.1118H41.1997C43.4715 42.1174 45.4978 43.5401 46.3016 45.6769L55.0708 69.4011C55.5118 70.5988 56.4551 71.5323 57.6497 71.954C57.7278 71.9821 57.7781 72.0552 57.7781 72.1396V72.4151C57.7669 72.5107 57.6888 72.5838 57.5939 72.5838L57.5883 72.5895ZM21.6963 42.4998C22.8574 43.0115 23.7617 43.9787 24.1915 45.1764L33.1003 69.2324C33.7701 71.0206 35.4614 72.2071 37.3593 72.2127H57.2199C56.0588 71.7066 55.1546 70.7451 54.708 69.5529L45.9388 45.8175C45.1964 43.8269 43.3097 42.5054 41.1997 42.4998H21.6908H21.6963Z" fill="#3C3C3B"/>
<path d="M82.9471 10.6787V24.343H79.8379V13.2598H73.6922V24.343H70.5831V10.6787H82.9415H82.9471Z" fill="#1D1D1B"/>
<path d="M98.6045 15.6327C98.6045 18.6805 96.3382 20.5699 92.7155 20.5699H89.9804V24.3262H86.8433V10.6787H92.7155C96.3382 10.6787 98.6045 12.5737 98.6045 15.6384V15.6327ZM95.4228 15.6327C95.4228 14.1313 94.4571 13.2541 92.5425 13.2541H89.9804V18.0001H92.5425C94.4627 18.0001 95.4451 17.1454 95.4451 15.6327H95.4283H95.4228Z" fill="#1D1D1B"/>
<path d="M111.828 21.807V24.343H101.328V10.6787H111.594V13.2204H104.449V16.1894H110.751V18.6468H104.449V21.7789L111.828 21.8126V21.807Z" fill="#1D1D1B"/>
<path d="M125.554 20.5192C125.554 23.1003 122.763 24.5792 119.509 24.5792C117.617 24.5792 115.752 24.09 114.106 23.1509L115.071 20.8848C116.305 21.6158 117.711 21.9981 119.14 21.9981C120.921 21.9981 122.378 21.3346 122.378 20.0638C122.378 19.0291 121.451 18.523 120.034 18.523H116.723V16.1388H119.799C121.077 16.1388 121.82 15.5765 121.82 14.6768C121.82 13.569 120.614 12.9786 119.085 12.9786C117.806 12.9898 116.556 13.3272 115.445 13.957L114.496 11.5109C115.936 10.7743 117.527 10.3919 119.146 10.3975C122.289 10.3975 124.996 11.8427 124.996 14.3225C124.996 15.6046 124.22 16.7573 123.037 17.2353C124.51 17.6402 125.543 18.9841 125.56 20.5192H125.554Z" fill="#1D1D1B"/>
<path d="M128.647 10.6787H131.756V19.5802L138.231 10.6787H141.178V24.343H138.069V15.464L131.616 24.343H128.652V10.6787H128.647Z" fill="#1D1D1B"/>
<path d="M159.163 21.7677V27.1547H156.255V24.3374H146.682V27.1547H143.779V21.7452H144.321C146.085 21.6833 146.531 18.7536 146.665 14.9299L146.821 10.6562H157.248V21.7452L159.169 21.762L159.163 21.7677ZM148.1 21.7677H154.162V13.2542H149.49L149.428 15.2448C149.339 18.1576 149.032 20.6543 148.1 21.7677Z" fill="#1D1D1B"/>
<path d="M172.42 21.807V24.343H161.915V10.6787H172.163V13.2204H165.019V16.1894H171.321V18.6468H165.019V21.7789L172.42 21.8126V21.807Z" fill="#1D1D1B"/>
<path d="M188.089 10.6787V24.343H184.952V18.7424H178.789V24.343H175.652V10.6787H178.789V16.0657H184.952V10.6787H188.089Z" fill="#1D1D1B"/>
<path d="M202.462 13.2598H198.114V24.343H195.005V13.2598H190.684V10.6787H202.446L202.457 13.2598H202.462Z" fill="#1D1D1B"/>
<path d="M203.975 17.5109C203.975 13.3947 207.112 10.4425 211.338 10.4425C213.47 10.3469 215.53 11.2354 216.931 12.8605L214.916 14.7386C214.078 13.7096 212.822 13.1192 211.505 13.136C209.105 13.136 207.157 15.0985 207.157 17.5165C207.157 19.9345 209.105 21.897 211.505 21.897C212.828 21.9082 214.084 21.3121 214.916 20.2775L216.931 22.1556C215.535 23.792 213.475 24.6917 211.338 24.5961C207.112 24.5792 203.975 21.627 203.975 17.5109Z" fill="#1D1D1B"/>
<path d="M224.829 18.8377H222.652V24.3372H219.543V10.6729H222.652V16.2004H224.902L228.469 10.6729H231.779L227.341 17.2688L231.913 24.3372H228.346L224.824 18.8377H224.829Z" fill="#1D1D1B"/>
<path d="M234.475 10.6787H237.584V19.5802L244.059 10.6787H247.034V24.343H243.925V15.464L237.439 24.343H234.475V10.6787Z" fill="#1D1D1B"/>
<path d="M250.908 10.6786H254.017V19.58L260.492 10.6786H263.44V24.3429H260.33V15.4639L253.866 24.3429H250.902V10.6786H250.908ZM253.392 6.81543H255.541C255.541 7.74888 256.082 8.23809 257.149 8.23809C258.215 8.23809 258.734 7.74888 258.756 6.81543H260.905C260.905 8.69357 259.661 9.80134 257.149 9.80134C254.637 9.80134 253.425 8.72731 253.409 6.81543H253.392Z" fill="#1D1D1B"/>
<path d="M79.5533 46.8973V48.3818H76.6618V46.8748C72.0679 46.6049 69.5504 44.4793 69.5504 40.903C69.5504 37.3267 72.0735 35.2011 76.6618 34.9312V33.5254H79.5533V34.9143C84.1249 35.1842 86.6423 37.3323 86.6423 40.903C86.6423 44.4737 84.1472 46.6611 79.5533 46.8973ZM76.6674 44.395V37.411C73.9155 37.6641 72.5982 38.7774 72.5982 40.903C72.5982 43.0286 74.0495 44.1476 76.6674 44.4119V44.395ZM83.6225 40.8636C83.6225 38.7549 82.2438 37.6191 79.5533 37.3885V44.3894C82.2884 44.1588 83.6337 43.0061 83.6337 40.8805L83.6225 40.8636Z" fill="#1D1D1B"/>
<path d="M88.97 40.9258C88.97 36.8714 92.0792 33.8574 96.3884 33.8574C100.698 33.8574 103.812 36.8433 103.812 40.9258C103.812 45.0082 100.647 47.9941 96.3884 47.9941C92.1294 47.9941 88.97 45.0026 88.97 40.9258ZM100.636 40.9258C100.58 38.564 98.6324 36.7028 96.288 36.759C93.9435 36.8152 92.0959 38.7777 92.1517 41.1394C92.2076 43.4562 94.0887 45.3062 96.394 45.3062C98.677 45.3737 100.575 43.563 100.642 41.2632C100.642 41.1507 100.642 41.0382 100.642 40.9258H100.636Z" fill="#1D1D1B"/>
<path d="M119.252 34.1104V47.7747H116.109V42.1796H109.947V47.7803H106.81V34.1104H109.947V39.4917H116.109V34.1104H119.252Z" fill="#1D1D1B"/>
<path d="M137.237 45.1936V50.6031H134.335V47.7747H124.761V50.6031H121.853V45.1936H122.395C124.159 45.1374 124.605 42.2077 124.745 38.384L124.901 34.1104H135.328V45.1936H137.243H137.237ZM126.174 45.1936H132.241V36.6801H127.586L127.53 38.6707C127.413 41.5836 127.123 44.0521 126.168 45.1936H126.174Z" fill="#1D1D1B"/>
<path d="M152.029 42.2637H149.864V47.7688H146.754V34.1045H149.864V39.6265H152.107L155.674 34.1045H158.99L154.547 40.7005L159.118 47.7688H155.557L152.029 42.2637Z" fill="#1D1D1B"/>
<path d="M174.642 34.1104L168.865 44.9237C167.743 47.0268 166.129 48.084 164.31 48.084C163.55 48.0727 162.802 47.9153 162.105 47.6172L162.858 45.2161C163.299 45.368 163.757 45.4523 164.22 45.4748C165.019 45.4748 165.75 45.0193 166.113 44.3052L166.23 44.1477L160.882 34.1328H164.237L167.843 41.4655L171.572 34.1328L174.647 34.116L174.642 34.1104Z" fill="#1D1D1B"/>
<path d="M188.379 34.1104V47.7747H185.27V36.6858H180.62L180.52 39.5423C180.347 44.9069 179.593 47.994 176.411 47.994C175.887 47.9827 175.367 47.9096 174.865 47.7803L175.06 45.1093C175.245 45.1599 175.429 45.188 175.619 45.1824C177.21 45.1824 177.611 43.1524 177.751 39.6548L177.946 34.116H188.379V34.1104Z" fill="#1D1D1B"/>
<path d="M203.981 43.0118C203.981 46.144 201.887 47.7747 198.387 47.7747H192.264V34.1104H195.373V38.5976H198.828C202.127 38.5976 203.986 40.0597 203.986 43.0118H203.981ZM200.827 43.0681C200.827 41.5667 199.855 40.9425 198.231 40.9425H195.396V45.4354H198.231C199.816 45.4354 200.827 44.6145 200.827 43.0681Z" fill="#1D1D1B"/>
<path d="M216.015 36.686H211.667V47.7749H208.558V36.686H204.209V34.1162H215.971L216.015 36.686Z" fill="#1D1D1B"/>
<path d="M231.628 34.1104L225.856 44.9237C224.734 47.0268 223.121 48.084 221.301 48.084C220.542 48.0727 219.789 47.9153 219.091 47.6172L219.85 45.2161C220.285 45.368 220.743 45.4523 221.206 45.4748C222.005 45.4748 222.742 45.0193 223.11 44.3052L223.227 44.1477L217.88 34.1328H221.229L224.84 41.4655L228.569 34.1328L231.639 34.116L231.628 34.1104Z" fill="#1D1D1B"/>
<path d="M245.895 39.0475C245.895 42.0896 243.635 43.9847 240.006 43.9847H237.277V47.7409H234.134V34.1104H240.006C243.635 34.1104 245.895 35.9997 245.895 39.0475ZM242.719 39.0475C242.719 37.5461 241.748 36.6633 239.828 36.6633H237.277V41.4092H239.828C241.748 41.4261 242.719 40.5545 242.719 39.0475Z" fill="#1D1D1B"/>
<path d="M261.067 34.1104V47.7747H257.958V42.1796H251.796V47.7803H248.653V34.1104H251.796V39.4917H257.958V34.1104H261.067Z" fill="#1D1D1B"/>
<path d="M276.674 43.0118C276.674 46.144 274.581 47.7747 271.081 47.7747H264.963V34.1104H268.073V38.5976H271.522C274.821 38.5976 276.68 40.0597 276.68 43.0118H276.674ZM273.515 43.0681C273.515 41.5667 272.544 40.9425 270.919 40.9425H268.095V45.4354H270.919C272.505 45.4354 273.515 44.6145 273.515 43.0681ZM278.399 34.1104H281.508V47.7747H278.399V34.1104Z" fill="#1D1D1B"/>
<path d="M288.034 34.1104L290.847 38.249L293.655 34.1104H297.333L292.823 40.6501L297.707 47.7747H293.978L290.825 43.2424L287.715 47.7747H284.093L288.938 40.7851L284.405 34.116H288.034V34.1104Z" fill="#1D1D1B"/>
<path d="M70.5887 57.5366H73.6978V66.4381L80.1729 57.5366H83.1201V71.201H80.011V62.3219L73.5359 71.201H70.5887V57.5366Z" fill="#1D1D1B"/>
<path d="M99.4529 57.5366V71.201H96.3159V65.5665H90.1534V71.201H87.0163V57.5366H90.1534V62.9236H96.3159V57.5366H99.4529Z" fill="#1D1D1B"/>
<path d="M103.36 57.5366H106.469V66.4381L112.945 57.5366H115.892V71.201H112.783V62.3219L106.308 71.201H103.344L103.36 57.5366Z" fill="#1D1D1B"/>
<path d="M134.016 68.6255V74.0969H131.136V71.2066H119.799V57.5366H122.908V68.6255H128.998V57.5366H132.107V68.6255H134.028H134.016Z" fill="#1D1D1B"/>
<path d="M136.763 57.5366H139.872V66.4381L146.341 57.5366H149.289V71.201H146.179V62.3219L139.71 71.201H136.746L136.763 57.5366Z" fill="#1D1D1B"/>
<path d="M162.54 68.2769H156.249L155.049 71.201H151.828L157.874 57.5366H160.983L167.045 71.201H163.751L162.54 68.2769ZM161.541 65.8758L159.431 60.6462L157.282 65.8758H161.547H161.541Z" fill="#1D1D1B"/>
<path d="M178.393 60.1177H174.045V71.201H170.935V60.1177H166.587V57.5366H178.348L178.393 60.1177Z" fill="#1D1D1B"/>
<path d="M180.977 57.5366H184.086V66.4381L190.556 57.5366H193.503V71.201H190.394V62.3219L183.925 71.201H180.955L180.977 57.5366Z" fill="#1D1D1B"/>
<path d="M209.367 67.3545C209.367 69.7331 207.503 71.1951 204.098 71.1951H197.411V57.5308H203.724C206.866 57.5308 208.725 58.7847 208.725 61.0677C208.748 62.3667 207.994 63.5588 206.805 64.0705C208.334 64.391 209.417 65.7743 209.367 67.3488V67.3545ZM200.536 63.1989H203.461C204.818 63.1989 205.532 62.631 205.532 61.5401C205.532 60.4492 204.818 59.8756 203.461 59.8756H200.536V63.1989ZM206.191 67.1014C206.191 65.9487 205.437 65.4032 203.986 65.4032H200.536V68.8558H203.986C205.437 68.8558 206.191 68.2935 206.191 67.0958V67.1014Z" fill="#1D1D1B"/>
<defs>
<linearGradient id="paint0_linear_8_1691" x1="38.7157" y1="7.69838" x2="38.7157" y2="39.2669" gradientUnits="userSpaceOnUse">
<stop offset="0.04" stop-color="#3A61A9"/>
<stop offset="0.06" stop-color="#3879BA"/>
<stop offset="0.1" stop-color="#3691CB"/>
<stop offset="0.14" stop-color="#34A2D7"/>
<stop offset="0.18" stop-color="#33ACDF"/>
<stop offset="0.23" stop-color="#33AFE1"/>
<stop offset="0.37" stop-color="#3599D1"/>
<stop offset="0.61" stop-color="#387ABB"/>
<stop offset="0.82" stop-color="#3968AE"/>
<stop offset="0.96" stop-color="#3A61A9"/>
</linearGradient>
<linearGradient id="paint1_linear_8_1691" x1="38.7045" y1="73.6075" x2="38.7045" y2="42.3426" gradientUnits="userSpaceOnUse">
<stop offset="0.09" stop-color="#E94B4C"/>
<stop offset="0.14" stop-color="#DA4243"/>
<stop offset="0.21" stop-color="#CA3839"/>
<stop offset="0.29" stop-color="#C13334"/>
<stop offset="0.4" stop-color="#BE3132"/>
<stop offset="0.63" stop-color="#D5373B"/>
<stop offset="0.84" stop-color="#E73C42"/>
<stop offset="0.88" stop-color="#E23B41"/>
<stop offset="0.92" stop-color="#D5383D"/>
<stop offset="0.97" stop-color="#BF3436"/>
<stop offset="1" stop-color="#A72F2F"/>
</linearGradient>
</defs>
</svg>
