<svg width="356" height="49" viewBox="0 0 356 49" fill="none" xmlns="http://www.w3.org/2000/svg">
<g clip-path="url(#clip0_8_1741)">
<path fill-rule="evenodd" clip-rule="evenodd" d="M0 0L24.4713 10.7881L48.936 0V38.2119L24.4713 49L0 38.2119V0Z" fill="#E43E25"/>
<path d="M316.524 22.4371C315.862 23.2795 315.013 23.9595 314.044 24.4244C313.074 24.8892 312.01 25.1265 310.933 25.1177C309.722 25.1394 308.518 24.9367 307.382 24.5198C306.421 24.1599 305.555 23.5868 304.851 22.8444C304.158 22.0903 303.642 21.1926 303.341 20.2164C303.003 19.1046 302.837 17.9481 302.851 16.7868C302.851 14.0799 303.573 12.0169 305.017 10.5977C306.461 9.17859 308.424 8.46682 310.906 8.46244C311.843 8.44831 312.778 8.51868 313.702 8.67269C314.405 8.79826 315.087 9.01934 315.729 9.3297V14.0076H312.967V10.7817C312.368 10.5903 311.741 10.4993 311.112 10.5123C306.984 10.5123 306.296 13.1732 306.296 16.7342C306.293 17.5217 306.406 18.3054 306.633 19.0601C306.838 19.7777 307.185 20.4477 307.654 21.0311C308.68 22.2991 310.171 22.4765 311.781 22.4765C313.136 22.4473 314.446 21.9866 315.517 21.1625L316.524 22.4371ZM318.597 8.77124H326.123V10.6569H324.096V22.897H324.281L330.866 8.77124H337.736V10.6569H335.464V22.897H337.736V24.7826H330.204V22.897H332.238V10.6569H332.052L325.427 24.7826H318.597V22.897H320.87V10.6569H318.597V8.77124ZM248.41 6.76734V4.69775H257.684C262.123 4.69775 266.76 5.58472 266.76 11.2219C266.76 17.4241 260.274 18.3768 254.65 17.93V22.713H257.724V24.7826H248.41V22.713H251.205V6.76734H248.41ZM254.65 15.8275C258.691 16.2086 262.918 15.913 262.918 11.2285C262.918 7.60832 260.526 6.77392 257.3 6.77392H254.65V15.8275ZM268.27 16.7934C268.248 15.5792 268.445 14.3709 268.853 13.2258C269.201 12.2431 269.759 11.3466 270.49 10.5977C271.219 9.88285 272.099 9.33755 273.066 9.0012C274.147 8.6219 275.286 8.43504 276.432 8.44929C277.69 8.42063 278.943 8.62107 280.128 9.04062C281.094 9.39562 281.961 9.97194 282.659 10.7226C283.331 11.4832 283.829 12.38 284.116 13.3506C284.447 14.4638 284.608 15.6198 284.593 16.7802C284.614 17.9868 284.421 19.1877 284.024 20.3281C283.681 21.3006 283.127 22.1865 282.401 22.9233C281.671 23.6382 280.791 24.1835 279.824 24.5198C277.544 25.2714 275.078 25.2552 272.808 24.4738C271.841 24.114 270.969 23.5412 270.258 22.7985C269.568 22.0437 269.056 21.1459 268.76 20.1704C268.421 19.0768 268.256 17.9375 268.27 16.7934ZM271.708 16.7934C271.702 17.7052 271.795 18.615 271.987 19.5068C272.609 22.3123 274.279 23.1138 276.982 23.1138C280.334 23.1138 281.148 19.474 281.148 16.7934C281.155 15.8772 281.062 14.9631 280.87 14.0668C280.281 11.3533 278.843 10.44 276.154 10.44C272.57 10.44 271.708 13.8434 271.708 16.7934ZM301.062 22.4371C300.4 23.2795 299.551 23.9595 298.582 24.4244C297.612 24.8892 296.548 25.1265 295.471 25.1177C294.26 25.1394 293.056 24.9367 291.92 24.5198C290.96 24.1618 290.094 23.591 289.39 22.851C288.696 22.0969 288.18 21.1992 287.879 20.223C287.541 19.1112 287.375 17.9546 287.389 16.7934C287.389 14.0865 288.111 12.0234 289.555 10.6043C290.999 9.18514 292.962 8.47338 295.444 8.469C296.381 8.45486 297.317 8.52524 298.24 8.67925C298.943 8.80578 299.625 9.02682 300.267 9.33626V14.0142H297.505V10.7883C296.906 10.5975 296.279 10.5065 295.65 10.5189C291.523 10.5189 290.834 13.1798 290.834 16.7408C290.831 17.5283 290.945 18.312 291.172 19.0666C291.376 19.7842 291.723 20.4542 292.192 21.0377C293.219 22.3057 294.702 22.4831 296.319 22.4831C297.674 22.4538 298.984 21.9932 300.055 21.1691L301.062 22.4371ZM350.468 10.6569H347.898C345.606 10.6569 344.387 11.5307 344.387 13.5871C344.387 16.524 347.037 16.5831 349.409 16.5831H350.468V10.6569ZM340.969 13.6528C340.969 9.84217 343.97 8.7778 347.302 8.7778H356V10.6634H353.721V22.9036H356V24.7892H348.481V22.9036H350.468V18.3833H348.315L343.493 24.7892H338.763V22.9036H340.532L345.076 18.2322C343.965 18.0535 342.95 17.5006 342.202 16.6665C341.454 15.8324 341.018 14.7681 340.969 13.6528ZM225.263 13.6528C225.263 9.84217 228.264 8.7778 231.59 8.7778H240.288V10.6634H238.016V22.9036H240.288V24.7892H232.782V22.9036H234.816V18.3833H232.663L227.84 24.7892H223.104V22.9036H224.826L229.377 18.2322C228.265 18.0549 227.248 17.5025 226.499 16.6683C225.749 15.8341 225.313 14.7691 225.263 13.6528ZM234.789 10.6634H232.219C229.92 10.6634 228.701 11.5373 228.701 13.5937C228.701 16.5306 231.351 16.5897 233.723 16.5897H234.789V10.6634ZM175.83 24.7892V22.9036H178.103V10.6569H175.83V8.77124H183.118V10.6569H181.302V22.897H187.119V10.6569H185.304V8.77124H192.16V10.6569H190.345V22.897H196.161V10.6569H194.28V8.77124H201.66V10.6569H199.427V22.897H202.773V28.6327H200.441V24.7826L175.83 24.7892ZM161.104 16.7999C161.088 17.8121 161.209 18.8218 161.462 19.8025C162.124 22.0692 163.31 23.1467 165.682 23.1467C169.378 23.1467 169.829 19.9864 169.829 16.7999C169.829 13.2389 169.285 10.4466 165.311 10.4466C161.78 10.44 161.13 13.758 161.13 16.7934L161.104 16.7999ZM156.122 24.7892H148.617V22.9036H150.895V10.6569H148.617V8.77124H156.149V10.6569H154.122V15.6239H157.692C157.786 13.6588 158.59 11.7929 159.958 10.3678C160.655 9.73754 161.476 9.25668 162.369 8.9552C163.363 8.62332 164.407 8.46114 165.456 8.47558C168.053 8.47558 170.012 9.18297 171.332 10.5977C172.653 12.0125 173.315 14.1106 173.32 16.8919C173.32 19.4762 172.646 21.4932 171.299 22.943C169.952 24.3928 168.009 25.1199 165.47 25.1243C164.434 25.134 163.404 24.9833 162.416 24.6775C161.516 24.4039 160.688 23.9373 159.991 23.3109C158.408 21.8786 157.758 19.5068 157.705 17.6409H154.141V22.897H156.169L156.122 24.7892ZM125.801 24.7892H118.051V22.9036H120.323V10.6569H116.938V14.1062H114.632V8.77124H129.273V14.1062H126.941V10.6569H123.556V22.897H125.828L125.801 24.7892ZM92.8572 8.7778H100.389V10.6634H98.3622V22.9036H98.5411L105.126 8.7778H112.002V10.6634H109.723V22.9036H112.002V24.7892H104.497V22.9036H106.524V10.6569H106.345L99.7203 24.7826H92.8837V22.897H95.1559V10.6569H92.8837L92.8572 8.7778ZM87.3919 22.7196H90.1875V24.7892H80.7805V22.7196H83.9736V16.7736C81.2526 17.9753 78.2222 18.3083 75.302 17.7263C74.5541 17.5832 73.8466 17.2806 73.2285 16.8394C72.6273 16.3906 72.1565 15.7922 71.8638 15.1048C71.5058 14.2136 71.3389 13.2582 71.3736 12.2994V6.77392H68.5714V4.70433H77.0575V6.77392H74.8117V11.5964C74.8117 16.9773 79.9458 16.3597 83.9736 14.8289V6.76734H81.4231V4.69775H90.214V6.76734H87.4184L87.3919 22.7196ZM135.169 24.7826H129.206V22.897H131.002L135.944 10.6569H134.062V8.77124H140.687L145.881 22.897H147.61V24.7826H140.323V22.897H142.376L141.098 19.2506H134.572L133.181 22.897H135.169V24.7826ZM140.468 17.4635L138.077 10.6569H137.858L135.255 17.4635H140.468ZM209.642 24.7826H203.72V22.897H205.522L210.457 10.6569H208.218V8.77124H215.207L220.401 22.897H222.13V24.7826H214.803V22.897H216.857L215.571 19.2506H209.046L207.655 22.897H209.642V24.7826ZM214.942 17.4635L212.551 10.6569H212.332L209.729 17.4635H214.942Z" fill="#31394B"/>
<path d="M72.142 41.7596H69.3V41.3917C69.5951 41.2566 69.9037 41.1531 70.2209 41.0829L73.4603 32.706H73.8313L77.0773 41.0763L77.5808 41.188C77.7439 41.232 77.9 41.2983 78.0445 41.3851V41.753H74.7322V41.3851C74.9026 41.313 75.0774 41.2516 75.2556 41.2011C75.4344 41.1551 75.6067 41.1091 75.7789 41.0763L74.9111 38.7505H71.8704L71.0291 41.0763C71.4073 41.1327 71.7768 41.2365 72.1288 41.3851L72.142 41.7596ZM72.142 38.1H74.719L73.712 35.4063L73.4669 34.3156L73.1489 35.4326L72.142 38.1ZM83.0594 40.8661C82.8882 41.1806 82.628 41.4387 82.3108 41.6085C81.9443 41.8165 81.5273 41.9211 81.1051 41.9107C80.6519 41.921 80.2013 41.8405 79.7802 41.6742C79.4243 41.5286 79.107 41.3038 78.8527 41.0172C78.5978 40.705 78.4085 40.3453 78.2963 39.9594C78.17 39.5148 78.1075 39.0547 78.1108 38.5928C78.0493 37.699 78.3336 36.8156 78.9057 36.1224C79.1836 35.8339 79.5209 35.6082 79.8948 35.4607C80.2687 35.3133 80.6702 35.2477 81.072 35.2683C81.4398 35.2517 81.8085 35.2738 82.1717 35.334C82.4635 35.394 82.7463 35.4912 83.013 35.6231C82.9817 35.9387 82.933 36.2523 82.8672 36.5626C82.8141 36.8575 82.7297 37.146 82.6155 37.4233H82.2644L81.7278 35.9122C81.6652 35.8701 81.5957 35.839 81.5225 35.8202C81.3951 35.8017 81.2656 35.8017 81.1382 35.8202C80.8832 35.8116 80.6297 35.8638 80.3992 35.9724C80.1687 36.081 79.9678 36.2429 79.8133 36.4444C79.4445 37.091 79.2806 37.8328 79.343 38.5731C79.34 38.891 79.3846 39.2077 79.4754 39.5126C79.5608 39.8089 79.7 40.0872 79.8862 40.3339C80.0615 40.5725 80.2877 40.7699 80.5486 40.912C80.8484 41.0613 81.1804 41.1358 81.5158 41.1289C81.7817 41.1324 82.0462 41.0902 82.2975 41.004C82.4998 40.9297 82.6896 40.8256 82.8606 40.6952L83.0594 40.8661ZM88.8029 40.8661C88.629 41.1809 88.3666 41.4388 88.0477 41.6085C87.6708 41.8202 87.2416 41.9226 86.8089 41.9041C86.3556 41.9161 85.9046 41.8356 85.484 41.6676C85.1261 41.5223 84.8065 41.2975 84.5499 41.0106C84.2949 40.6985 84.1057 40.3388 83.9934 39.9528C83.8672 39.5082 83.8047 39.0481 83.8079 38.5862C83.7465 37.6925 84.0307 36.8091 84.6029 36.1159C84.8807 35.8273 85.2181 35.6016 85.592 35.4542C85.9658 35.3068 86.3674 35.2411 86.7691 35.2617C87.1451 35.2564 87.5205 35.2917 87.8887 35.3669C88.1805 35.4269 88.4633 35.524 88.73 35.6559C88.6987 35.9715 88.6501 36.2852 88.5843 36.5955C88.5311 36.8904 88.4468 37.1789 88.3326 37.4562H87.9881L87.4449 35.945C87.3842 35.9036 87.3171 35.8726 87.2461 35.8531C87.1164 35.8353 86.9849 35.8353 86.8553 35.8531C86.6002 35.8445 86.3468 35.8967 86.1162 36.0053C85.8857 36.1139 85.6848 36.2757 85.5303 36.4772C85.1616 37.1238 84.9977 37.8656 85.06 38.6059C85.0603 38.9237 85.1049 39.2398 85.1925 39.5455C85.2778 39.8417 85.417 40.1201 85.6032 40.3667C85.7949 40.6227 86.0463 40.8288 86.3359 40.9673C86.6255 41.1058 86.9447 41.1725 87.266 41.1617C87.5297 41.1653 87.792 41.123 88.0411 41.0369C88.2433 40.9625 88.4331 40.8584 88.6042 40.7281L88.8029 40.8661ZM89.5912 38.5797C89.584 38.1005 89.6556 37.6234 89.8032 37.1671C89.9307 36.7805 90.1383 36.4247 90.4127 36.1224C90.6778 35.8362 91.0036 35.6118 91.3666 35.4654C91.7621 35.3163 92.1824 35.2427 92.6054 35.2486C93.0737 35.2376 93.5396 35.318 93.9767 35.4851C94.3388 35.6263 94.6614 35.8516 94.9174 36.1421C95.1709 36.4474 95.354 36.804 95.454 37.1868C95.5724 37.6305 95.6303 38.0879 95.6262 38.5468C95.6884 39.4431 95.3934 40.3277 94.8048 41.0106C94.5218 41.3024 94.1791 41.5307 93.7997 41.6803C93.4204 41.8299 93.0132 41.8972 92.6054 41.8778C92.1522 41.8883 91.7016 41.8079 91.2805 41.6413C90.9208 41.4992 90.6006 41.274 90.3464 40.9843C90.0869 40.6742 89.8952 40.314 89.7833 39.9265C89.6544 39.4889 89.5875 39.0356 89.5846 38.5797H89.5912ZM90.8234 38.5797C90.823 38.9439 90.8607 39.3072 90.936 39.6637C90.9979 39.9749 91.1145 40.2729 91.2805 40.5441C91.4339 40.7883 91.6454 40.9914 91.8966 41.1354C92.1813 41.2868 92.5011 41.3616 92.824 41.3522C93.0541 41.3497 93.2796 41.2878 93.4782 41.1726C93.6769 41.0574 93.8418 40.8929 93.9568 40.6952C94.2947 40.05 94.446 39.3246 94.3941 38.5994C94.3975 38.2353 94.362 37.8719 94.2881 37.5153C94.2253 37.2053 94.1112 36.9078 93.9502 36.6349C93.8047 36.3952 93.6023 36.1944 93.3606 36.0502C93.0996 35.8995 92.8013 35.8244 92.4994 35.8333C92.2573 35.8293 92.0182 35.8878 91.8057 36.0029C91.5932 36.1181 91.4145 36.2861 91.2871 36.4904C90.9291 37.1267 90.7656 37.8527 90.8168 38.5797H90.8234ZM96.6531 41.7596V41.4377C96.9152 41.2926 97.1993 41.1905 97.4944 41.1354V36.0436C97.1955 35.9991 96.9091 35.8939 96.6531 35.7348V35.4063H99.3957V35.7348C99.1598 35.8724 98.9055 35.9763 98.6404 36.0436V41.1946H101.343V36.0436C101.078 35.9765 100.824 35.8725 100.588 35.7348V35.4063H103.37V35.7348C103.252 35.7998 103.128 35.8548 102.999 35.899C102.843 35.9557 102.684 36.0039 102.522 36.0436V41.1946H103.662C103.662 41.6019 103.629 42.0093 103.609 42.4166C103.589 42.824 103.563 43.2313 103.523 43.6387H103.211L102.642 41.7596H96.6531ZM104.516 35.4063H107.233V35.7348C107.127 35.794 107.016 35.8446 106.901 35.8859C106.759 35.9469 106.613 35.9995 106.464 36.0436V39.5192L106.325 40.7018H106.385L106.888 39.7491L109.624 35.4063H111.32V35.7348C111.059 35.8836 110.774 35.988 110.479 36.0436V41.1354L110.936 41.2668C111.07 41.308 111.199 41.3654 111.32 41.4377V41.7596H108.604V41.4377C108.846 41.3045 109.104 41.2029 109.372 41.1354V37.5021L109.505 36.4969H109.439L108.955 37.4496L106.239 41.7596H104.483V41.4377C104.622 41.3734 104.763 41.3164 104.907 41.2668L105.325 41.1354V36.0436C105.025 36.0013 104.738 35.8961 104.483 35.7348L104.516 35.4063ZM117.103 40.0908C117.103 40.2813 117.103 40.439 117.103 40.577C117.103 40.715 117.103 40.8529 117.103 41.0106L117.991 41.1354V41.3982C117.761 41.516 117.522 41.6149 117.275 41.6939C117.03 41.7734 116.78 41.837 116.527 41.8844H116.209C116.118 41.6765 116.066 41.4538 116.057 41.2274C116.057 40.9953 116.043 40.739 116.017 40.4587H115.957C115.919 40.6411 115.852 40.8163 115.758 40.9777C115.659 41.1524 115.529 41.3081 115.374 41.4377C115.21 41.5797 115.022 41.691 114.818 41.7662C114.586 41.8561 114.338 41.9007 114.089 41.8976C113.856 41.9072 113.623 41.8703 113.405 41.789C113.186 41.7078 112.986 41.5838 112.817 41.4245C112.652 41.2661 112.522 41.0747 112.436 40.863C112.35 40.6512 112.311 40.4239 112.32 40.1959C112.306 39.8601 112.389 39.5273 112.559 39.2367C112.729 38.9777 112.97 38.7724 113.254 38.6454C113.617 38.4861 114.001 38.3798 114.394 38.33C114.851 38.2709 115.374 38.2183 115.97 38.1854C116.004 37.858 116.015 37.5288 116.004 37.1999C115.997 36.9446 115.95 36.6919 115.864 36.4509C115.791 36.262 115.667 36.0963 115.507 35.9713C115.324 35.8481 115.105 35.788 114.884 35.8005H114.48C114.327 35.8128 114.178 35.8483 114.036 35.9056L113.433 37.4299H113.102C113.016 37.1736 112.943 36.9108 112.877 36.6415C112.815 36.378 112.775 36.1099 112.757 35.8399C113.096 35.643 113.459 35.4906 113.837 35.3866C114.269 35.2717 114.715 35.2165 115.162 35.2223C115.521 35.2063 115.878 35.2691 116.209 35.4063C116.446 35.5102 116.651 35.6732 116.805 35.8793C116.94 36.0768 117.031 36.301 117.07 36.5363C117.115 36.7702 117.137 37.0078 117.136 37.2459C117.136 37.7518 117.136 38.2446 117.136 38.7111C117.136 39.1775 117.097 39.6637 117.097 40.0908H117.103ZM114.632 41.1223C114.827 41.1252 115.02 41.0824 115.195 40.9975C115.349 40.9184 115.488 40.814 115.606 40.6887C115.713 40.581 115.804 40.4594 115.878 40.3273C115.933 40.2287 115.98 40.1254 116.017 40.0185V38.7045C115.609 38.6999 115.202 38.7241 114.798 38.7768C114.537 38.8103 114.285 38.8928 114.056 39.0198C113.892 39.1167 113.763 39.2613 113.685 39.4338C113.616 39.6141 113.582 39.8059 113.586 39.9988C113.566 40.3042 113.665 40.6054 113.864 40.8398C113.964 40.9384 114.085 41.0145 114.217 41.0633C114.35 41.112 114.491 41.1321 114.632 41.1223ZM118.826 41.7793V41.4574C119.087 41.3113 119.372 41.2092 119.667 41.1551V36.0633C119.368 36.0188 119.082 35.9137 118.826 35.7545V35.426H121.575V35.7545C121.339 35.8921 121.085 35.996 120.82 36.0633V41.2143H123.522V36.0633C123.257 35.9962 123.003 35.8922 122.767 35.7545V35.426H125.523V35.7545C125.404 35.8183 125.28 35.8732 125.152 35.9188C124.996 35.9754 124.837 36.0236 124.675 36.0633V41.2143H125.815C125.815 41.6216 125.795 42.029 125.755 42.4363C125.755 42.8437 125.709 43.251 125.675 43.6584H125.364L124.794 41.7793H118.826ZM126.689 35.426H129.405V35.7545C129.298 35.8125 129.188 35.863 129.074 35.9056C128.931 35.9656 128.785 36.0182 128.637 36.0633V39.5389L128.491 40.7215H128.557L129.054 39.7688L131.797 35.426H133.526V35.7545C133.262 35.9033 132.976 36.0077 132.678 36.0633V41.1551C132.843 41.1946 132.996 41.2406 133.141 41.2865C133.276 41.3289 133.404 41.3863 133.526 41.4574V41.7793H130.81V41.4574C131.051 41.3231 131.309 41.2214 131.578 41.1551V37.5021L131.711 36.4969H131.644L131.154 37.4496L128.445 41.7596H126.689V41.4377C126.827 41.3734 126.969 41.3164 127.113 41.2668L127.53 41.1354V36.0436C127.231 36.0026 126.944 35.8972 126.689 35.7348V35.426ZM134.837 37.305C134.833 37.0352 134.882 36.7672 134.983 36.5166C135.076 36.2803 135.226 36.0704 135.42 35.9056C135.649 35.7256 135.91 35.5897 136.189 35.5048C136.557 35.4028 136.939 35.3541 137.322 35.3603H137.752H138.335H138.931H139.388H140.309V35.6888C140.223 35.7609 140.124 35.8166 140.018 35.8531C139.838 35.9208 139.651 35.9693 139.461 35.9976V41.0894C139.751 41.1698 140.034 41.2708 140.309 41.3917V41.7136H137.553V41.3917C137.666 41.3256 137.783 41.2684 137.905 41.2208C138.03 41.1748 138.163 41.1289 138.309 41.0894V38.941L137.375 39.0658C137.196 39.3681 136.997 39.7229 136.772 40.1433C136.523 40.6032 136.218 41.0313 135.864 41.418L135.467 41.7136H134.022V41.3917L134.738 41.0894C135.095 40.7223 135.42 40.3267 135.712 39.9068C135.977 39.5192 136.215 39.1841 136.427 38.9147C136.229 38.8809 136.035 38.8235 135.851 38.7439C135.665 38.665 135.494 38.5537 135.347 38.4154C135.193 38.2724 135.069 38.1005 134.983 37.9095C134.892 37.7205 134.842 37.5145 134.837 37.305ZM138.309 35.991C138.203 35.991 138.057 35.991 137.878 35.9385C137.699 35.8859 137.56 35.9385 137.441 35.9385C137.242 35.9122 137.04 35.931 136.849 35.9936C136.659 36.0562 136.485 36.1609 136.341 36.2998C136.131 36.5849 136.026 36.9327 136.043 37.2853C136.04 37.4801 136.081 37.6731 136.162 37.8503C136.243 38.0276 136.363 38.1847 136.513 38.3103C136.935 38.6085 137.448 38.7504 137.964 38.7111H138.309V35.991ZM148.08 35.4326H150.558V35.7611C150.452 35.8372 150.336 35.8971 150.213 35.9385L149.696 36.1159C149.405 36.4641 149.1 36.8189 148.776 37.1736C148.451 37.5284 148.113 37.8832 147.749 38.238C147.941 38.4417 148.14 38.6651 148.345 38.895C148.55 39.125 148.769 39.3943 149.007 39.6571L149.67 40.4324C149.888 40.6821 150.094 40.9186 150.299 41.142L150.902 41.4442V41.7662H149.405L148.994 41.4705C148.61 41.0172 148.259 40.5573 147.941 40.0974C147.623 39.6374 147.278 39.1907 146.98 38.7505H146.43V41.142C146.603 41.1814 146.755 41.2274 146.901 41.2734C147.029 41.3157 147.151 41.3731 147.265 41.4442V41.7662H144.443V41.4442C144.708 41.2992 144.994 41.1972 145.291 41.142V36.0502C144.995 35.9878 144.709 35.8838 144.443 35.7414V35.4128H147.093V35.7414C147.005 35.8037 146.912 35.8587 146.815 35.9056C146.702 35.9635 146.584 36.0119 146.464 36.0502V38.422L147.053 38.2971C147.398 37.9029 147.716 37.5416 148.027 37.2065C148.341 36.8574 148.628 36.4863 148.888 36.0961L148.484 35.9253C148.361 35.8719 148.241 35.8105 148.126 35.7414L148.08 35.4326ZM154.102 41.7859H151.346V41.4639C151.473 41.3952 151.606 41.3381 151.743 41.2931L152.194 41.1617V36.0699L151.743 35.9319C151.606 35.887 151.473 35.8298 151.346 35.7611V35.4326H154.102V35.7611C153.865 35.8975 153.611 36.0014 153.346 36.0699V38.2906H156.188V36.0699C155.913 36.0243 155.65 35.9188 155.42 35.7611V35.4326H158.189V35.7611C157.928 35.9151 157.641 36.0198 157.341 36.0699V41.1617L157.792 41.2734C157.934 41.3154 158.068 41.3797 158.189 41.4639V41.7859H155.42V41.4639C155.651 41.3083 155.913 41.2051 156.188 41.1617V38.849H153.346V41.1617C153.496 41.187 153.643 41.2289 153.784 41.2865C153.895 41.3349 154.002 41.3943 154.102 41.4639V41.7859ZM159.189 35.4326H161.905V35.7611C161.799 35.8191 161.688 35.8696 161.574 35.9122C161.431 35.9721 161.285 36.0248 161.137 36.0699V39.5455L160.991 40.7281H161.058L161.554 39.7754L164.297 35.4326H166.026V35.7611C165.764 35.9088 165.48 36.0131 165.185 36.0699V41.1617L165.642 41.2931C165.776 41.3355 165.905 41.3928 166.026 41.4639V41.7859H163.31V41.4639C163.551 41.3296 163.81 41.228 164.078 41.1617V37.5021L164.211 36.4969H164.145L163.654 37.4496L160.945 41.7596H159.189V41.4377C159.328 41.3734 159.469 41.3164 159.613 41.2668L160.031 41.1354V36.0436C159.731 36.0013 159.444 35.8961 159.189 35.7348V35.4326ZM173.3 35.4326H175.519V35.7611C175.293 35.8989 175.047 36.0029 174.79 36.0699C174.512 36.4378 174.234 36.8057 173.942 37.1605C173.651 37.5153 173.366 37.8701 173.088 38.2249L173.492 38.7965L174.029 39.5389C174.221 39.8083 174.419 40.0776 174.631 40.3602C174.843 40.6427 175.042 40.9055 175.247 41.1617L175.777 41.4639V41.7859H174.419L174.062 41.4902C173.916 41.2931 173.757 41.0697 173.591 40.8332L173.094 40.0514L172.651 39.3221L172.319 38.7899H171.703V41.1814C171.971 41.2511 172.229 41.3526 172.472 41.4836V41.8056H169.895V41.4836L170.279 41.2471C170.398 41.1943 170.519 41.1483 170.643 41.1092V38.6454L169.941 38.7702C169.862 38.8885 169.762 39.0658 169.636 39.2892L169.219 40.0251C169.067 40.2879 168.914 40.5507 168.749 40.8004C168.612 41.0326 168.454 41.2524 168.278 41.4574L167.894 41.753H166.569V41.4311L167.159 41.1289C167.371 40.8792 167.576 40.623 167.775 40.3536C167.974 40.0842 168.166 39.8214 168.345 39.5652L168.841 38.849C168.987 38.6256 169.126 38.4351 169.246 38.284C168.921 37.9161 168.583 37.5481 168.311 37.1736C168.04 36.7991 167.722 36.4181 167.45 36.037C167.21 35.9801 166.985 35.875 166.788 35.7282V35.3997H169.007V35.7282C168.804 35.8652 168.58 35.9694 168.345 36.037C168.573 36.4333 168.823 36.8171 169.093 37.1868C169.365 37.5416 169.65 37.9292 169.948 38.33H170.61V36.037C170.354 35.982 170.11 35.877 169.895 35.7282V35.3997H172.379V35.7282C172.29 35.7964 172.195 35.8558 172.094 35.9056C171.969 35.9622 171.838 36.0063 171.703 36.037V38.4088L172.405 38.284L173.22 37.1605C173.465 36.8123 173.704 36.4378 173.942 36.037L173.611 35.9056C173.499 35.8616 173.394 35.8019 173.3 35.7282V35.4326ZM179.03 41.7859H176.274V41.4639C176.401 41.394 176.534 41.3368 176.672 41.2931C176.817 41.2471 176.963 41.2011 177.122 41.1617V36.0699L176.672 35.9319C176.534 35.8882 176.401 35.831 176.274 35.7611V35.4326H179.03V35.7611C178.793 35.8963 178.539 36.0001 178.275 36.0699V38.2906H181.117V36.0699C180.841 36.0255 180.578 35.92 180.348 35.7611V35.4326H183.111V35.7611C182.852 35.915 182.567 36.0197 182.27 36.0699V41.1617L182.713 41.2734C182.855 41.3154 182.989 41.3797 183.111 41.4639V41.7859H180.348V41.4639C180.578 41.3071 180.841 41.2038 181.117 41.1617V38.849H178.275V41.1617C178.423 41.1879 178.567 41.2297 178.705 41.2865C178.819 41.3349 178.928 41.3943 179.03 41.4639V41.7859ZM186.112 38.0212L186.602 37.9621C186.861 37.9312 187.123 37.9181 187.384 37.9226C187.935 37.8949 188.481 38.0497 188.934 38.3628C189.136 38.5333 189.295 38.7492 189.396 38.9926C189.498 39.236 189.539 39.4998 189.517 39.7623C189.525 40.0703 189.461 40.376 189.331 40.6558C189.214 40.912 189.037 41.1371 188.815 41.3128C188.574 41.4918 188.302 41.6254 188.013 41.707C187.684 41.8001 187.342 41.8444 187 41.8384C186.768 41.8384 186.509 41.8384 186.224 41.8384C185.94 41.8384 185.628 41.8384 185.304 41.8384H184.111V41.5165C184.245 41.438 184.387 41.3741 184.535 41.326L184.959 41.2143V36.1224C184.805 36.0965 184.654 36.0547 184.509 35.9976C184.376 35.945 184.244 35.8793 184.111 35.8136V35.4851H186.88V35.8136C186.64 35.951 186.381 36.0549 186.112 36.1224V38.0212ZM186.112 41.234H186.443C186.558 41.2407 186.673 41.2407 186.788 41.234C187.755 41.234 188.238 40.7281 188.238 39.7097C188.243 39.5027 188.204 39.2971 188.126 39.1053C188.063 38.9518 187.963 38.8163 187.834 38.7111C187.705 38.6156 187.559 38.5443 187.404 38.5008C187.237 38.4606 187.065 38.4408 186.894 38.4417H186.509C186.376 38.4433 186.242 38.4587 186.112 38.4877V41.234ZM192.67 41.7859H189.914V41.4639L190.272 41.2997C190.401 41.2438 190.534 41.1977 190.67 41.1617V36.0699C190.393 36.0266 190.13 35.921 189.901 35.7611V35.4326H192.67V35.7611C192.554 35.8334 192.43 35.8908 192.299 35.9319L191.822 36.0699V41.1617L192.246 41.2931C192.39 41.3427 192.532 41.3997 192.67 41.4639V41.7859ZM196.983 38.376L199.01 41.1617L199.361 41.2931C199.475 41.3395 199.583 41.3967 199.686 41.4639V41.7859H197.036V41.4771L197.367 41.2931C197.467 41.241 197.571 41.1971 197.678 41.1617L196.254 39.079L194.817 41.1617C194.933 41.1985 195.046 41.2447 195.154 41.2997L195.459 41.4639V41.7859H193.273V41.4639C193.495 41.3276 193.736 41.2257 193.988 41.1617L195.896 38.6322L193.975 36.0699L193.651 35.9319C193.546 35.8811 193.444 35.824 193.346 35.7611V35.4326H195.923V35.7479C195.817 35.8136 195.717 35.8793 195.618 35.9319C195.516 35.9908 195.407 36.0372 195.294 36.0699L196.618 37.9752L197.943 36.0699C197.706 36.0063 197.482 35.9018 197.281 35.7611V35.4326H199.421V35.7611C199.196 35.8971 198.953 36.001 198.699 36.0699L196.983 38.376ZM208.397 44.3219H205.608V44.0066C205.87 43.8608 206.154 43.7587 206.449 43.7043V41.4639C206.312 41.6048 206.15 41.7205 205.972 41.8056C205.765 41.9005 205.538 41.9455 205.31 41.937C204.97 41.9382 204.633 41.8758 204.316 41.753C204.015 41.6305 203.749 41.4364 203.541 41.188C203.313 40.9014 203.145 40.5733 203.044 40.2222C202.917 39.7711 202.857 39.3041 202.865 38.8359C202.79 37.8875 203.037 36.9415 203.568 36.1487C203.791 35.868 204.077 35.6433 204.404 35.4926C204.731 35.342 205.089 35.2696 205.449 35.2815C205.648 35.2776 205.847 35.3134 206.032 35.3866C206.191 35.4438 206.328 35.5496 206.423 35.6888V33.1199L205.449 33.0213V32.6863C205.724 32.567 206.01 32.4746 206.304 32.4103C206.601 32.336 206.901 32.2768 207.205 32.2329H207.523V35.7611C207.664 35.6034 207.841 35.4817 208.039 35.4063C208.25 35.3231 208.475 35.2807 208.702 35.2815C209.026 35.2657 209.35 35.3224 209.649 35.4475C209.949 35.5726 210.216 35.7628 210.431 36.0042C210.916 36.6401 211.152 37.4294 211.093 38.2249C211.102 38.787 211.037 39.348 210.901 39.8937C210.797 40.3046 210.619 40.6939 210.378 41.0435C210.172 41.3268 209.896 41.553 209.576 41.7005C209.257 41.8469 208.908 41.921 208.556 41.9173C208.355 41.9187 208.155 41.883 207.966 41.8121C207.8 41.7582 207.649 41.6633 207.529 41.5362V43.6846C207.685 43.7042 207.838 43.7394 207.986 43.7898C208.126 43.8354 208.258 43.9019 208.377 43.9869L208.397 44.3219ZM205.608 41.3128C205.758 41.311 205.908 41.2889 206.052 41.2471C206.206 41.2115 206.347 41.1315 206.456 41.0172V36.1487C206.351 36.0806 206.238 36.0275 206.118 35.991C205.95 35.9464 205.776 35.9264 205.601 35.9319C205.394 35.9293 205.19 35.9767 205.005 36.0699C204.81 36.1702 204.646 36.3198 204.528 36.5035C204.382 36.7315 204.277 36.9826 204.217 37.2459C204.131 37.6074 204.091 37.9783 204.098 38.3497C204.089 38.8277 204.129 39.3053 204.217 39.7754C204.275 40.0943 204.382 40.4024 204.535 40.6887C204.648 40.8899 204.815 41.056 205.018 41.1683C205.203 41.2536 205.405 41.2942 205.608 41.2865V41.3128ZM208.437 35.9385C208.271 35.9379 208.107 35.9578 207.947 35.9976C207.798 36.0346 207.66 36.1042 207.542 36.2013V41.0829C207.644 41.1687 207.764 41.2295 207.894 41.2603C208.059 41.2979 208.228 41.3156 208.397 41.3128C208.596 41.3131 208.792 41.2634 208.967 41.1683C209.165 41.0568 209.334 40.8989 209.457 40.7084C209.615 40.4609 209.728 40.1872 209.788 39.9003C209.875 39.501 209.915 39.0931 209.907 38.6848C209.913 38.245 209.882 37.8054 209.815 37.3708C209.768 37.0753 209.674 36.7891 209.536 36.5232C209.434 36.3277 209.275 36.1673 209.079 36.0633C208.88 35.9646 208.66 35.9129 208.437 35.9122V35.9385ZM217.314 40.8661C217.234 41.0219 217.124 41.1604 216.989 41.2734C216.838 41.403 216.671 41.5133 216.492 41.6019C216.298 41.7027 216.09 41.7778 215.876 41.8253C215.66 41.882 215.437 41.9107 215.214 41.9107C214.761 41.9187 214.311 41.8383 213.889 41.6742C213.52 41.5309 213.189 41.3062 212.922 41.0172C212.662 40.7078 212.466 40.3505 212.345 39.9659C212.207 39.5214 212.14 39.058 212.147 38.5928C212.084 37.7033 212.353 36.8222 212.902 36.1159C213.173 35.8266 213.506 35.6005 213.876 35.454C214.246 35.3074 214.644 35.244 215.041 35.2683C215.339 35.2683 215.636 35.3081 215.923 35.3866C216.207 35.4638 216.471 35.6005 216.698 35.7874C216.937 35.9891 217.125 36.2433 217.247 36.5298C217.399 36.8941 217.471 37.2858 217.459 37.6796C217.459 37.8241 217.459 37.9686 217.459 38.1197C217.446 38.2789 217.422 38.437 217.387 38.5928H213.412C213.41 38.9301 213.455 39.266 213.544 39.5915C213.627 39.8833 213.764 40.1573 213.948 40.3996C214.125 40.627 214.352 40.8113 214.611 40.9383C214.912 41.0762 215.24 41.1437 215.571 41.1354C215.878 41.1322 216.183 41.0903 216.479 41.0106C216.721 40.9462 216.947 40.832 217.141 40.6755L217.314 40.8661ZM214.969 35.8136C214.757 35.8007 214.546 35.838 214.353 35.9226C214.159 36.0072 213.989 36.1365 213.856 36.2998C213.541 36.8191 213.381 37.4156 213.392 38.0212H216.207C216.214 37.9469 216.214 37.8721 216.207 37.7978C216.207 37.7255 216.207 37.6598 216.207 37.5876C216.234 37.1297 216.129 36.6738 215.903 36.2735C215.803 36.127 215.667 36.0079 215.509 35.9275C215.35 35.847 215.173 35.8079 214.995 35.8136H214.969ZM223.508 40.8661C223.337 41.1806 223.076 41.4387 222.759 41.6085C222.393 41.8165 221.976 41.9211 221.553 41.9107C221.1 41.9227 220.649 41.8421 220.229 41.6742C219.873 41.5286 219.555 41.3038 219.301 41.0172C219.046 40.705 218.857 40.3453 218.745 39.9594C218.615 39.5154 218.553 39.0549 218.559 38.5928C218.498 37.6991 218.783 36.816 219.354 36.1224C219.632 35.8339 219.969 35.6082 220.343 35.4607C220.717 35.3133 221.119 35.2477 221.52 35.2683C221.896 35.2633 222.272 35.2986 222.64 35.3734C222.932 35.4334 223.215 35.5306 223.481 35.6625C223.45 35.9781 223.401 36.2917 223.335 36.602C223.282 36.8969 223.198 37.1854 223.084 37.4627H222.733L222.196 35.9516C222.133 35.9095 222.064 35.8784 221.991 35.8596C221.863 35.8411 221.734 35.8411 221.606 35.8596C221.351 35.851 221.098 35.9033 220.867 36.0119C220.637 36.1205 220.436 36.2823 220.282 36.4838C219.913 37.1304 219.749 37.8722 219.811 38.6125C219.808 38.9304 219.853 39.2471 219.944 39.552C220.029 39.8483 220.168 40.1266 220.354 40.3733C220.53 40.6119 220.756 40.8093 221.017 40.9515C221.317 41.1007 221.649 41.1752 221.984 41.1683C222.25 41.1718 222.514 41.1296 222.766 41.0435C222.968 40.9691 223.158 40.865 223.329 40.7347L223.508 40.8661ZM228.403 41.7596H225.561V41.4377C225.828 41.303 226.111 41.2015 226.403 41.1354V35.991H225.19L224.641 37.5153H224.316C224.27 37.1539 224.236 36.7926 224.21 36.4444C224.183 36.0961 224.17 35.7873 224.164 35.4326H229.801C229.801 35.7348 229.801 36.0896 229.755 36.4312C229.708 36.7729 229.702 37.1539 229.649 37.5153H229.324L228.774 35.991H227.582V41.1617C227.878 41.2218 228.163 41.3235 228.43 41.4639L228.403 41.7596ZM230.656 35.4063H233.372V35.7348C233.268 35.7941 233.159 35.8447 233.047 35.8859C232.921 35.9385 232.776 35.991 232.603 36.0436V39.5192L232.464 40.7018H232.55L233.054 39.7491L235.796 35.4063H237.525V35.7348C237.262 35.8826 236.975 35.9869 236.677 36.0436V41.1354C236.843 41.1748 236.995 41.2208 237.141 41.2668C237.275 41.3092 237.404 41.3665 237.525 41.4377V41.7596H234.809V41.4377C235.051 41.3034 235.309 41.2017 235.578 41.1354V37.5021L235.704 36.4969H235.637L235.154 37.4496L232.438 41.7596H230.682V41.4377C230.82 41.3734 230.962 41.3164 231.106 41.2668L231.53 41.1354V36.0436C231.229 36.0013 230.94 35.896 230.682 35.7348L230.656 35.4063ZM244.21 39.9331C244.218 40.2403 244.137 40.5434 243.978 40.8069C243.818 41.0483 243.605 41.2505 243.355 41.3982C243.072 41.5557 242.766 41.6687 242.448 41.7333C242.09 41.8057 241.726 41.8409 241.361 41.8384H240.699C240.562 41.8461 240.425 41.8461 240.288 41.8384H240.01H238.512V41.5165C238.779 41.3808 239.062 41.2792 239.354 41.2143V36.1224C239.057 36.0689 238.773 35.9644 238.512 35.8136V35.4851H240.189H240.606H240.99H241.414C242.022 35.4553 242.629 35.5701 243.183 35.8202C243.391 35.9355 243.56 36.1078 243.672 36.3163C243.784 36.5249 243.832 36.761 243.812 36.9963C243.817 37.1856 243.774 37.3731 243.686 37.5416C243.6 37.7007 243.486 37.8432 243.348 37.9621C243.071 38.1981 242.739 38.3608 242.381 38.4351C242.608 38.4499 242.831 38.4963 243.044 38.5731C243.254 38.643 243.451 38.7474 243.627 38.8819C243.792 39.0144 243.928 39.1801 244.024 39.3681C244.125 39.5415 244.188 39.734 244.21 39.9331ZM240.52 41.2471C240.67 41.2763 240.824 41.2895 240.977 41.2865H241.427C241.832 41.3176 242.234 41.2033 242.56 40.9646C242.686 40.8473 242.784 40.7042 242.848 40.5453C242.912 40.3865 242.94 40.2157 242.931 40.0448C242.942 39.8641 242.907 39.6836 242.828 39.5204C242.749 39.3571 242.63 39.2165 242.481 39.1118C242.139 38.889 241.736 38.7787 241.328 38.7965H240.5L240.52 41.2471ZM240.52 38.4154L241.957 38.2906C242.147 38.1867 242.311 38.0405 242.434 37.8635C242.604 37.6238 242.688 37.3347 242.673 37.0422C242.692 36.8788 242.666 36.7134 242.598 36.5631C242.531 36.4129 242.424 36.2834 242.289 36.1881C241.944 36.0096 241.557 35.9278 241.169 35.9516H240.844C240.735 35.9558 240.626 35.9713 240.52 35.9976V38.4154ZM250.039 40.1302C250.039 40.3207 250.039 40.4784 250.039 40.6164C250.039 40.7544 250.039 40.8923 250.039 41.05L250.927 41.1749V41.4377C250.699 41.5555 250.462 41.6544 250.218 41.7333C249.971 41.8129 249.719 41.8766 249.463 41.9238H249.145C249.054 41.7159 249.002 41.4932 248.993 41.2668C248.993 41.0347 248.979 40.7784 248.953 40.4981H248.887C248.849 40.6805 248.782 40.8558 248.688 41.0172C248.59 41.1933 248.46 41.3493 248.304 41.4771C248.142 41.6218 247.953 41.7335 247.747 41.8056C247.515 41.8955 247.268 41.9401 247.018 41.937C246.785 41.9463 246.553 41.9092 246.334 41.8279C246.116 41.7467 245.916 41.6229 245.747 41.4639C245.581 41.3055 245.451 41.1142 245.366 40.9024C245.28 40.6906 245.24 40.4633 245.25 40.2353C245.235 39.8996 245.318 39.5667 245.488 39.2761C245.659 39.0154 245.903 38.8098 246.19 38.6848C246.552 38.5239 246.936 38.4176 247.33 38.3694C247.78 38.3103 248.304 38.2577 248.9 38.2249C248.925 37.8968 248.925 37.5674 248.9 37.2393C248.893 36.984 248.846 36.7313 248.761 36.4904C248.708 36.2974 248.6 36.1238 248.449 35.991C248.266 35.8678 248.048 35.8078 247.827 35.8202H247.423C247.27 35.8333 247.121 35.8688 246.979 35.9253L246.383 37.4496H246.045C245.959 37.1934 245.886 36.9305 245.819 36.6612C245.761 36.3971 245.721 36.1292 245.7 35.8596C246.041 35.6627 246.406 35.5103 246.787 35.4063C247.218 35.2906 247.664 35.2353 248.112 35.242C248.468 35.2266 248.823 35.2894 249.152 35.426C249.388 35.5299 249.594 35.6929 249.748 35.899C249.885 36.0962 249.977 36.3203 250.019 36.556C250.059 36.7905 250.079 37.0279 250.079 37.2656C250.079 37.7715 250.079 38.2643 250.079 38.7308C250.079 39.1973 250.039 39.6637 250.039 40.0908V40.1302ZM247.562 41.1617C247.759 41.164 247.954 41.1213 248.131 41.0369C248.283 40.9577 248.42 40.8533 248.536 40.7281C248.642 40.6204 248.734 40.4989 248.807 40.3667C248.863 40.2681 248.909 40.1648 248.946 40.0579V38.7439C248.541 38.7394 248.136 38.7636 247.734 38.8162C247.473 38.8487 247.221 38.9313 246.992 39.0593C246.825 39.1541 246.693 39.299 246.614 39.4732C246.545 39.6535 246.512 39.8453 246.515 40.0382C246.494 40.3449 246.597 40.6472 246.8 40.8792C246.902 40.9706 247.023 41.0395 247.155 41.0813C247.286 41.1232 247.425 41.1372 247.562 41.1223V41.1617ZM252.577 40.7018C252.716 40.4468 252.823 40.1753 252.895 39.8937C252.993 39.5235 253.073 39.1485 253.133 38.7702C253.193 38.3628 253.246 37.9424 253.279 37.4956C253.312 37.0488 253.332 36.6218 253.332 36.1816C253.169 36.1324 253.012 36.0686 252.861 35.991C252.727 35.9168 252.596 35.8357 252.471 35.7479V35.4194H257.724V35.7479C257.46 35.8967 257.174 36.0011 256.876 36.0567V41.1486C257.038 41.1831 257.197 41.2292 257.353 41.2865C257.479 41.3348 257.603 41.3897 257.724 41.4508V41.7727H254.968V41.4508C255.195 41.2984 255.453 41.1954 255.723 41.1486V35.991H254.034C254.034 36.4378 254.001 36.9174 253.954 37.4167C253.908 37.9161 253.848 38.4154 253.762 38.9082C253.684 39.3707 253.573 39.8273 253.431 40.2747C253.319 40.6558 253.151 41.0187 252.934 41.3522C252.804 41.5644 252.621 41.7406 252.404 41.8647C252.247 41.9584 252.062 41.9934 251.881 41.9633C251.736 41.7911 251.613 41.6012 251.517 41.3982C251.412 41.1924 251.345 40.9701 251.318 40.7412L251.497 40.4259L252.577 40.7018ZM263.918 40.9055C263.843 41.0625 263.734 41.2014 263.6 41.3128C263.449 41.4424 263.282 41.5527 263.103 41.6413C262.907 41.74 262.701 41.815 262.487 41.8647C262.271 41.9208 262.048 41.9495 261.824 41.9501C261.371 41.9581 260.921 41.8778 260.5 41.7136C260.133 41.5703 259.804 41.3455 259.539 41.0566C259.277 40.7475 259.079 40.3903 258.956 40.0054C258.818 39.5608 258.751 39.0974 258.757 38.6322C258.694 37.7416 258.965 36.8592 259.519 36.1553C259.79 35.8669 260.121 35.6414 260.49 35.4948C260.859 35.3483 261.256 35.2844 261.652 35.3077C261.952 35.3071 262.251 35.3469 262.54 35.426C262.824 35.5033 263.088 35.6399 263.315 35.8268C263.554 36.0285 263.742 36.2827 263.865 36.5692C264.016 36.9335 264.088 37.3252 264.077 37.719C264.077 37.8635 264.077 38.008 264.077 38.1592C264.077 38.3103 264.037 38.4614 264.004 38.6322H260.029C260.028 38.9695 260.072 39.3054 260.162 39.6309C260.245 39.9227 260.382 40.1967 260.566 40.439C260.741 40.6677 260.968 40.8523 261.228 40.9777C261.529 41.1157 261.858 41.1831 262.189 41.1749C262.495 41.1716 262.8 41.1297 263.096 41.05C263.339 40.9877 263.565 40.8733 263.759 40.7149L263.918 40.9055ZM261.579 35.8531C261.367 35.839 261.155 35.8758 260.96 35.9605C260.765 36.0451 260.593 36.175 260.46 36.3392C260.151 36.8604 259.992 37.456 260.003 38.0606H262.818V37.8372C262.818 37.765 262.818 37.6992 262.818 37.627C262.845 37.1691 262.739 36.7132 262.513 36.313C262.416 36.1557 262.278 36.0267 262.114 35.939C261.95 35.8514 261.766 35.8081 261.579 35.8136V35.8531ZM265.15 35.4457H267.866V35.7742C267.762 35.8323 267.653 35.8828 267.542 35.9253C267.416 35.9779 267.27 36.0305 267.098 36.083V39.5586L266.959 40.7412H266.998L267.502 39.7886L270.238 35.4457H271.973V35.7742C271.71 35.9221 271.423 36.0264 271.125 36.083V41.1749L271.583 41.3063C271.719 41.3487 271.85 41.406 271.973 41.4771V41.799H269.257V41.4771C269.498 41.3417 269.757 41.24 270.026 41.1749V37.5021L270.152 36.4969H270.085L269.602 37.4496L266.886 41.7596H265.13V41.4377C265.268 41.3734 265.41 41.3164 265.554 41.2668L265.978 41.1354V36.0436C265.676 36.0025 265.387 35.8971 265.13 35.7348L265.15 35.4457ZM268.701 34.6836C268.345 34.6924 267.99 34.6481 267.648 34.5522C267.404 34.4808 267.179 34.3599 266.985 34.1974C266.828 34.0642 266.709 33.8919 266.641 33.6981C266.58 33.5111 266.549 33.3162 266.548 33.1199C266.679 33.0113 266.829 32.9287 266.992 32.8768C267.159 32.8239 267.333 32.7908 267.508 32.7782L267.826 32.9425V34.02C267.962 34.0758 268.105 34.1112 268.25 34.1251C268.399 34.1484 268.55 34.1594 268.701 34.158C268.78 34.158 268.919 34.158 269.105 34.158C269.262 34.1493 269.417 34.1251 269.569 34.0857V32.9031L269.887 32.7388C270.061 32.7518 270.233 32.7894 270.397 32.8505C270.54 32.9027 270.673 32.9807 270.788 33.0805C270.788 33.278 270.753 33.474 270.682 33.6586C270.613 33.8508 270.497 34.0226 270.344 34.158C270.151 34.3213 269.925 34.4422 269.681 34.5127C269.364 34.6154 269.034 34.6708 268.701 34.677V34.6836Z" fill="#31394B"/>
<mask id="mask0_8_1741" style="mask-type:luminance" maskUnits="userSpaceOnUse" x="24" y="0" width="25" height="49">
<path d="M48.936 0H24.4647V49H48.936V0Z" fill="url(#paint0_linear_8_1741)"/>
</mask>
<g mask="url(#mask0_8_1741)">
<path fill-rule="evenodd" clip-rule="evenodd" d="M24.4715 49L48.9362 38.2119V0L24.4715 10.7881V49Z" fill="#C33927"/>
</g>
</g>
<defs>
<linearGradient id="paint0_linear_8_1741" x1="24.4647" y1="0" x2="36.5454" y2="24.5859" gradientUnits="userSpaceOnUse">
<stop stop-color="white"/>
<stop offset="1" stop-color="#010101"/>
</linearGradient>
<clipPath id="clip0_8_1741">
<rect width="356" height="49" fill="white"/>
</clipPath>
</defs>
</svg>
