<svg width="368" height="93" viewBox="0 0 368 93" fill="none" xmlns="http://www.w3.org/2000/svg">
<path d="M42.2081 43.0793H44.733C46.7749 43.0793 48.5967 41.8057 49.312 39.88L55.1077 24.2098V15.5964C55.1199 12.6063 52.7173 10.17 49.7461 10.1638H28.9233V10.3361C31.2953 10.9575 32.9521 13.1108 32.9521 15.5779V73.7429C32.9521 76.21 31.2953 78.3634 28.9233 78.9848V79.1878H49.7461C52.7173 79.1878 55.126 76.7638 55.126 73.7737V65.1603L49.3059 49.4532C48.6028 47.5213 46.7749 46.2416 44.733 46.2477H42.2081C41.346 46.2477 40.6491 45.5402 40.643 44.6666C40.643 43.7991 41.346 43.0916 42.2081 43.0916V43.0793Z" fill="white"/>
<path d="M49.74 79.3664H28.9172C28.801 79.3664 28.7093 79.2741 28.7093 79.1572V78.9788C28.7093 78.8803 28.7766 78.8004 28.8683 78.7757C31.1425 78.179 32.732 76.1117 32.732 73.7431V15.5781C32.732 13.2094 31.1486 11.136 28.8683 10.5392C28.7766 10.5146 28.7093 10.4285 28.7093 10.3362V10.1639C28.7093 10.047 28.801 9.95476 28.9172 9.94861H49.74C52.8273 9.94861 55.3339 12.4711 55.3339 15.5781V24.1915C55.3339 24.1915 55.3339 24.2407 55.3339 24.2653L49.5199 39.9355C48.774 41.9535 46.8605 43.2886 44.7269 43.2886H42.2019C41.4561 43.2886 40.8447 43.8977 40.8447 44.6544C40.8447 45.0174 40.9853 45.3619 41.2421 45.6203C41.4928 45.8787 41.8412 46.0264 42.2019 46.0203H44.7269C46.8544 46.0203 48.7557 47.3615 49.4954 49.3733L55.3217 65.0805C55.3217 65.0805 55.3217 65.1297 55.3217 65.1543V73.7492C55.3094 76.8439 52.8212 79.3541 49.74 79.3664ZM28.9172 78.9788L29.6936 78.9419H49.74C52.595 78.9419 54.9059 76.6101 54.9121 73.7369V65.2035L49.1042 49.5025C48.4256 47.663 46.6832 46.4386 44.733 46.4386H42.2081C41.2299 46.4386 40.4351 45.6388 40.429 44.6483C40.429 43.6577 41.2177 42.8518 42.2019 42.8456H44.7269C46.6771 42.8456 48.4194 41.6213 49.1042 39.7879L54.9059 24.1484V15.5719C54.9059 12.6987 52.5889 10.3731 49.7339 10.367H29.6875C31.7844 11.2345 33.1539 13.2894 33.1539 15.5719V73.7369C33.1539 76.0195 31.7844 78.0744 29.6875 78.9419L28.9172 78.9788Z" fill="#3C3C3B"/>
<path d="M64.3086 10.1576C61.906 10.1576 59.7601 11.6588 58.9225 13.9229L55.126 24.1667L49.3304 39.8554C48.6212 41.7934 46.7871 43.0793 44.733 43.0731H68.5208C70.6912 43.0731 72.6292 41.7196 73.3872 39.6708L83.1445 13.3507C83.6336 11.9788 84.7096 10.9082 86.0729 10.4283V10.1515H64.3147L64.3086 10.1576Z" fill="url(#paint0_linear_4_118)"/>
<path d="M68.5147 43.2884H44.7269C44.6107 43.2884 44.519 43.1961 44.519 43.0793C44.5129 42.9624 44.5985 42.8578 44.7146 42.8516C44.7146 42.8516 44.7207 42.8516 44.7269 42.8516C46.6771 42.8516 48.4194 41.6273 49.1042 39.7939L58.7086 13.8368C59.5767 11.4927 61.802 9.93616 64.2903 9.93001H86.0423C86.1585 9.93001 86.2563 10.0284 86.2563 10.1453V10.4222C86.2563 10.5145 86.2013 10.5945 86.1157 10.6252C84.8074 11.0867 83.7803 12.108 83.3096 13.4184L73.5523 39.7385C72.7637 41.8549 70.7584 43.27 68.5147 43.2884ZM46.7688 42.8639H68.5209C70.5995 42.8639 72.4519 41.5596 73.1855 39.6031L82.9427 13.2831C83.4135 11.9726 84.3978 10.9144 85.6694 10.3607H64.3147C62.0099 10.3607 59.9435 11.8003 59.1243 13.9721L49.526 39.9108C49.043 41.2274 48.0404 42.2856 46.7627 42.8455V42.8578L46.7688 42.8639Z" fill="#3C3C3B"/>
<path d="M83.1384 75.9578L73.5156 50.0007C72.672 47.7428 70.5261 46.2477 68.1296 46.2354H44.733C46.7688 46.2354 48.5906 47.5151 49.2937 49.4409L55.1138 65.148L59.0448 75.7548C59.8029 77.7974 61.7409 79.1509 63.9112 79.1571H86.0607V78.874C84.7096 78.3818 83.6397 77.3175 83.1445 75.9578H83.1384Z" fill="url(#paint1_linear_4_118)"/>
<path d="M86.0729 79.3662H63.9234C61.6737 79.3662 59.6562 77.9512 58.8675 75.8286L49.1103 49.5085C48.4317 47.669 46.6893 46.4446 44.7391 46.4446C44.6229 46.4262 44.5434 46.3154 44.5618 46.1985C44.574 46.1062 44.6474 46.0324 44.7391 46.0201H68.1235C70.6117 46.0263 72.8309 47.5828 73.7113 49.9207L83.3157 75.8778C83.7987 77.1883 84.8318 78.2096 86.1401 78.671C86.2257 78.7018 86.2808 78.7817 86.2808 78.874V79.1755C86.2685 79.2801 86.1829 79.3601 86.079 79.3601L86.0729 79.3662ZM46.7627 46.4446C48.0343 47.0045 49.0247 48.0627 49.4954 49.3732L59.2527 75.6932C59.9863 77.6497 61.8387 78.9479 63.9173 78.954H85.6694C84.3978 78.4003 83.4074 77.3482 82.9183 76.0439L73.3139 50.0746C72.5008 47.8966 70.4344 46.4508 68.1235 46.4446H46.7566H46.7627Z" fill="#3C3C3B"/>
<path d="M113.847 11.6281V26.5785H110.442V14.452H103.711V26.5785H100.305V11.6281H113.841H113.847Z" fill="white"/>
<path d="M130.995 17.0545C130.995 20.3891 128.513 22.4563 124.546 22.4563H121.55V26.5662H118.114V11.6342H124.546C128.513 11.6342 130.995 13.7076 130.995 17.0607V17.0545ZM127.511 17.0545C127.511 15.4118 126.453 14.452 124.356 14.452H121.55V19.6447H124.356C126.459 19.6447 127.535 18.7095 127.535 17.0545H127.517H127.511Z" fill="white"/>
<path d="M145.478 23.8037V26.5785H133.979V11.6281H145.222V14.409H137.396V17.6575H144.298V20.3461H137.396V23.773L145.478 23.8099V23.8037Z" fill="white"/>
<path d="M160.512 22.3948C160.512 25.2188 157.455 26.8369 153.891 26.8369C151.818 26.8369 149.776 26.3016 147.973 25.2741L149.03 22.7947C150.382 23.5945 151.922 24.0129 153.487 24.0129C155.437 24.0129 157.033 23.2869 157.033 21.8965C157.033 20.7644 156.018 20.2107 154.465 20.2107H150.84V17.6021H154.209C155.609 17.6021 156.422 16.9868 156.422 16.0024C156.422 14.7904 155.101 14.1444 153.426 14.1444C152.026 14.1567 150.657 14.5259 149.44 15.2149L148.401 12.5386C149.978 11.7327 151.72 11.3143 153.493 11.3205C156.935 11.3205 159.9 12.9016 159.9 15.6148C159.9 17.0176 159.051 18.2788 157.754 18.8018C159.368 19.2448 160.499 20.7152 160.518 22.3948H160.512Z" fill="white"/>
<path d="M163.899 11.6281H167.304V21.3674L174.396 11.6281H177.624V26.5785H174.218V16.8638L167.151 26.5785H163.905V11.6281H163.899Z" fill="white"/>
<path d="M197.321 23.7607V29.6547H194.136V26.5723H183.652V29.6547H180.472V23.736H181.065C182.997 23.6684 183.486 20.463 183.633 16.2793L183.804 11.6035H195.224V23.736L197.328 23.7545L197.321 23.7607ZM185.204 23.7607H191.844V14.4459H186.727L186.659 16.6238C186.562 19.8108 186.225 22.5425 185.204 23.7607Z" fill="white"/>
<path d="M211.841 23.8037V26.5785H200.335V11.6281H211.56V14.409H203.735V17.6575H210.637V20.3461H203.735V23.773L211.841 23.8099V23.8037Z" fill="white"/>
<path d="M229.002 11.6281V26.5785H225.566V20.4507H218.817V26.5785H215.381V11.6281H218.817V17.5221H225.566V11.6281H229.002Z" fill="white"/>
<path d="M244.744 14.452H239.982V26.5785H236.577V14.452H231.845V11.6281H244.726L244.738 14.452H244.744Z" fill="white"/>
<path d="M246.401 19.1033C246.401 14.5997 249.837 11.3697 254.465 11.3697C256.8 11.2651 259.056 12.2372 260.591 14.0152L258.384 16.0701C257.467 14.9442 256.091 14.2982 254.648 14.3167C252.02 14.3167 249.886 16.4639 249.886 19.1094C249.886 21.755 252.02 23.9022 254.648 23.9022C256.097 23.9145 257.473 23.2623 258.384 22.1303L260.591 24.1852C259.062 25.9755 256.806 26.9599 254.465 26.8553C249.837 26.8369 246.401 23.6068 246.401 19.1033Z" fill="white"/>
<path d="M269.241 20.5552H266.857V26.5723H263.452V11.6219H266.857V17.6698H269.321L273.227 11.6219H276.853L271.993 18.8387L277 26.5723H273.093L269.235 20.5552H269.241Z" fill="white"/>
<path d="M279.806 11.6281H283.211V21.3674L290.303 11.6281H293.561V26.5785H290.156V16.8638L283.052 26.5785H279.806V11.6281Z" fill="white"/>
<path d="M297.804 11.6281H301.209V21.3674L308.301 11.6281H311.529V26.5785H308.124V16.8638L301.044 26.5785H297.798V11.6281H297.804ZM300.525 7.40137H302.878C302.878 8.42267 303.471 8.95793 304.639 8.95793C305.807 8.95793 306.375 8.42267 306.4 7.40137H308.753C308.753 9.45628 307.39 10.6683 304.639 10.6683C301.888 10.6683 300.561 9.49319 300.543 7.40137H300.525Z" fill="white"/>
<path d="M110.13 51.2558V52.8801H106.963V51.2312C101.931 50.9359 99.1743 48.6103 99.1743 44.6973C99.1743 40.7844 101.938 38.4588 106.963 38.1635V36.6254H110.13V38.145C115.137 38.4403 117.894 40.7906 117.894 44.6973C117.894 48.6041 115.161 50.9974 110.13 51.2558ZM106.969 48.518V40.8767C103.955 41.1536 102.512 42.3717 102.512 44.6973C102.512 47.023 104.102 48.2473 106.969 48.5365V48.518ZM114.587 44.6543C114.587 42.3471 113.077 41.1043 110.13 40.8521V48.5118C113.125 48.2596 114.599 46.9983 114.599 44.6727L114.587 44.6543Z" fill="white"/>
<path d="M120.443 44.722C120.443 40.2861 123.849 36.9884 128.568 36.9884C133.288 36.9884 136.699 40.2553 136.699 44.722C136.699 49.1886 133.233 52.4555 128.568 52.4555C123.904 52.4555 120.443 49.1825 120.443 44.722ZM133.221 44.722C133.16 42.1379 131.026 40.1015 128.458 40.163C125.891 40.2245 123.867 42.3717 123.928 44.9557C123.989 47.4905 126.05 49.5147 128.574 49.5147C131.075 49.5885 133.153 47.6074 133.227 45.0911C133.227 44.968 133.227 44.845 133.227 44.722H133.221Z" fill="white"/>
<path d="M153.609 37.2652V52.2156H150.168V46.0939H143.418V52.2217H139.982V37.2652H143.418V43.1531H150.168V37.2652H153.609Z" fill="white"/>
<path d="M173.307 49.3916V55.3103H170.128V52.2156H159.644V55.3103H156.458V49.3916H157.051C158.983 49.3301 159.472 46.1247 159.625 41.9411L159.796 37.2652H171.217V49.3916H173.313H173.307ZM161.19 49.3916H167.836V40.0769H162.737L162.676 42.2548C162.548 45.4418 162.23 48.1427 161.184 49.3916H161.19Z" fill="white"/>
<path d="M189.508 46.1862H187.136V52.2094H183.731V37.2591H187.136V43.3007H189.594L193.5 37.2591H197.132L192.266 44.4759L197.273 52.2094H193.372L189.508 46.1862Z" fill="white"/>
<path d="M214.274 37.2652L207.947 49.0963C206.718 51.3973 204.951 52.554 202.958 52.554C202.127 52.5417 201.308 52.3694 200.543 52.0433L201.369 49.4162C201.852 49.5824 202.353 49.6746 202.86 49.6993C203.735 49.6993 204.535 49.2009 204.933 48.4196L205.061 48.2473L199.204 37.2898H202.879L206.828 45.3126L210.912 37.2898L214.28 37.2714L214.274 37.2652Z" fill="white"/>
<path d="M229.32 37.2652V52.2156H225.915V40.083H220.822L220.712 43.2085C220.522 49.0779 219.697 52.4555 216.212 52.4555C215.638 52.4432 215.069 52.3633 214.519 52.2217L214.733 49.2993C214.935 49.3547 215.136 49.3855 215.344 49.3793C217.087 49.3793 217.527 47.1583 217.68 43.3315L217.894 37.2714H229.32V37.2652Z" fill="white"/>
<path d="M246.407 47.0045C246.407 50.4314 244.115 52.2156 240.281 52.2156H233.575V37.2652H236.98V42.1748H240.764C244.378 42.1748 246.413 43.7745 246.413 47.0045H246.407ZM242.953 47.066C242.953 45.4233 241.889 44.7404 240.11 44.7404H237.005V49.6562H240.11C241.847 49.6562 242.953 48.7579 242.953 47.066Z" fill="white"/>
<path d="M259.588 40.083H254.826V52.2156H251.42V40.083H246.658V37.2714H259.539L259.588 40.083Z" fill="white"/>
<path d="M276.688 37.2652L270.366 49.0963C269.138 51.3973 267.371 52.554 265.378 52.554C264.546 52.5417 263.721 52.3694 262.957 52.0433L263.788 49.4162C264.265 49.5824 264.766 49.6746 265.274 49.6993C266.148 49.6993 266.955 49.2009 267.358 48.4196L267.487 48.2473L261.63 37.2898H265.298L269.254 45.3126L273.338 37.2898L276.7 37.2714L276.688 37.2652Z" fill="white"/>
<path d="M292.314 42.667C292.314 45.9955 289.838 48.0689 285.864 48.0689H282.875V52.1787H279.433V37.2652H285.864C289.838 37.2652 292.314 39.3324 292.314 42.667ZM288.835 42.667C288.835 41.0243 287.772 40.0584 285.669 40.0584H282.875V45.2511H285.669C287.772 45.2695 288.835 44.3159 288.835 42.667Z" fill="white"/>
<path d="M308.931 37.2652V52.2156H305.525V46.0939H298.776V52.2217H295.334V37.2652H298.776V43.1531H305.525V37.2652H308.931Z" fill="white"/>
<path d="M326.024 47.0045C326.024 50.4314 323.732 52.2156 319.898 52.2156H313.198V37.2652H316.603V42.1748H320.381C323.995 42.1748 326.03 43.7745 326.03 47.0045H326.024ZM322.564 47.066C322.564 45.4233 321.5 44.7404 319.721 44.7404H316.628V49.6562H319.721C321.457 49.6562 322.564 48.7579 322.564 47.066ZM327.913 37.2652H331.319V52.2156H327.913V37.2652Z" fill="white"/>
<path d="M338.465 37.2652L341.547 41.7934L344.622 37.2652H348.651L343.711 44.4205L349.06 52.2156H344.976L341.522 47.2567L338.117 52.2156H334.149L339.456 44.5681L334.492 37.2714H338.465V37.2652Z" fill="white"/>
<path d="M100.311 62.8962H103.717V72.6355L110.808 62.8962H114.036V77.8466H110.631V68.1319L103.539 77.8466H100.311V62.8962Z" fill="white"/>
<path d="M131.925 62.8962V77.8466H128.489V71.6819H121.739V77.8466H118.304V62.8962H121.739V68.7902H128.489V62.8962H131.925Z" fill="white"/>
<path d="M136.204 62.8962H139.609V72.6355L146.701 62.8962H149.929V77.8466H146.524V68.1319L139.432 77.8466H136.186L136.204 62.8962Z" fill="white"/>
<path d="M169.78 75.0288V81.0151H166.625V77.8527H154.209V62.8962H157.614V75.0288H164.284V62.8962H167.689V75.0288H169.792H169.78Z" fill="white"/>
<path d="M172.788 62.8962H176.193V72.6355L183.279 62.8962H186.507V77.8466H183.101V68.1319L176.016 77.8466H172.769L172.788 62.8962Z" fill="white"/>
<path d="M201.02 74.6473H194.13L192.816 77.8466H189.288L195.909 62.8962H199.314L205.954 77.8466H202.347L201.02 74.6473ZM199.926 72.0202L197.615 66.2985L195.261 72.0202H199.932H199.926Z" fill="white"/>
<path d="M218.383 65.7202H213.62V77.8466H210.215V65.7202H205.452V62.8962H218.334L218.383 65.7202Z" fill="white"/>
<path d="M221.213 62.8962H224.619V72.6355L231.704 62.8962H234.932V77.8466H231.527V68.1319L224.441 77.8466H221.189L221.213 62.8962Z" fill="white"/>
<path d="M252.307 73.6383C252.307 76.2408 250.265 77.8404 246.536 77.8404H239.212V62.8901H246.126C249.568 62.8901 251.604 64.2621 251.604 66.7599C251.628 68.1811 250.803 69.4855 249.501 70.0453C251.176 70.396 252.362 71.9095 252.307 73.6322V73.6383ZM242.635 69.0917H245.839C247.324 69.0917 248.107 68.4703 248.107 67.2767C248.107 66.0832 247.324 65.4556 245.839 65.4556H242.635V69.0917ZM248.828 73.3615C248.828 72.1002 248.003 71.5035 246.413 71.5035H242.635V75.281H246.413C248.003 75.281 248.828 74.6658 248.828 73.3553V73.3615Z" fill="white"/>
<defs>
<linearGradient id="paint0_linear_4_118" x1="65.4029" y1="8.37344" x2="65.4029" y2="42.907" gradientUnits="userSpaceOnUse">
<stop offset="0.04" stop-color="#3A61A9"/>
<stop offset="0.06" stop-color="#3879BA"/>
<stop offset="0.1" stop-color="#3691CB"/>
<stop offset="0.14" stop-color="#34A2D7"/>
<stop offset="0.18" stop-color="#33ACDF"/>
<stop offset="0.23" stop-color="#33AFE1"/>
<stop offset="0.37" stop-color="#3599D1"/>
<stop offset="0.61" stop-color="#387ABB"/>
<stop offset="0.82" stop-color="#3968AE"/>
<stop offset="0.96" stop-color="#3A61A9"/>
</linearGradient>
<linearGradient id="paint1_linear_4_118" x1="65.3907" y1="80.486" x2="65.3907" y2="46.2724" gradientUnits="userSpaceOnUse">
<stop offset="0.09" stop-color="#E94B4C"/>
<stop offset="0.14" stop-color="#DA4243"/>
<stop offset="0.21" stop-color="#CA3839"/>
<stop offset="0.29" stop-color="#C13334"/>
<stop offset="0.4" stop-color="#BE3132"/>
<stop offset="0.63" stop-color="#D5373B"/>
<stop offset="0.84" stop-color="#E73C42"/>
<stop offset="0.88" stop-color="#E23B41"/>
<stop offset="0.92" stop-color="#D5383D"/>
<stop offset="0.97" stop-color="#BF3436"/>
<stop offset="1" stop-color="#A72F2F"/>
</linearGradient>
</defs>
</svg>
